<mxfile host="app.diagrams.net" modified="2024-04-18T05:21:09.207Z" agent="Mozilla/5.0 (Windows NT 10.0; Win64; x64) AppleWebKit/537.36 (KHTML, like Gecko) Chrome/123.0.0.0 Safari/537.36" etag="dvddbN_JY8-MzTPKeb2y" version="24.2.5" type="device">
  <diagram name="페이지-1" id="oW2eZpud063H_jaHKD5r">
    <mxGraphModel dx="2440" dy="1332" grid="1" gridSize="10" guides="1" tooltips="1" connect="1" arrows="1" fold="1" page="1" pageScale="1" pageWidth="827" pageHeight="1169" math="0" shadow="0">
      <root>
        <mxCell id="0" />
        <mxCell id="1" parent="0" />
        <mxCell id="KMLwlwWI1u_eGaCkUCbn-92" value="WIZWindow GUI" style="whiteSpace=wrap;strokeWidth=2;" vertex="1" parent="1">
          <mxGeometry x="971" y="20" width="129" height="34" as="geometry" />
        </mxCell>
        <mxCell id="KMLwlwWI1u_eGaCkUCbn-93" value="Search Button Clicked" style="rounded=0;absoluteArcSize=1;arcSize=14;whiteSpace=wrap;strokeWidth=2;glass=0;shadow=1;" vertex="1" parent="1">
          <mxGeometry x="30" y="104" width="173" height="34" as="geometry" />
        </mxCell>
        <mxCell id="KMLwlwWI1u_eGaCkUCbn-94" value="Setting Button Clicked" style="rounded=0;absoluteArcSize=1;arcSize=14;whiteSpace=wrap;strokeWidth=2;glass=0;shadow=1;" vertex="1" parent="1">
          <mxGeometry x="283" y="104" width="175" height="34" as="geometry" />
        </mxCell>
        <mxCell id="KMLwlwWI1u_eGaCkUCbn-95" value="Firmware Update Button Clicked" style="rounded=0;absoluteArcSize=1;arcSize=14;whiteSpace=wrap;strokeWidth=2;shadow=1;" vertex="1" parent="1">
          <mxGeometry x="587" y="104" width="249" height="34" as="geometry" />
        </mxCell>
        <mxCell id="KMLwlwWI1u_eGaCkUCbn-96" value="Reset Button Clicked" style="rounded=0;absoluteArcSize=1;arcSize=14;whiteSpace=wrap;strokeWidth=2;shadow=1;" vertex="1" parent="1">
          <mxGeometry x="954" y="104" width="164" height="34" as="geometry" />
        </mxCell>
        <mxCell id="KMLwlwWI1u_eGaCkUCbn-97" value="Factory Reset Button Clicked" style="rounded=0;absoluteArcSize=1;arcSize=14;whiteSpace=wrap;strokeWidth=2;shadow=1;" vertex="1" parent="1">
          <mxGeometry x="1188" y="104" width="223" height="34" as="geometry" />
        </mxCell>
        <mxCell id="KMLwlwWI1u_eGaCkUCbn-98" value="Save Configuration Button Clicked" style="rounded=0;absoluteArcSize=1;arcSize=14;whiteSpace=wrap;strokeWidth=2;shadow=1;" vertex="1" parent="1">
          <mxGeometry x="1460" y="104" width="260" height="34" as="geometry" />
        </mxCell>
        <mxCell id="KMLwlwWI1u_eGaCkUCbn-99" value="Load Configuration Button Clicked" style="rounded=0;absoluteArcSize=1;arcSize=14;whiteSpace=wrap;strokeWidth=2;shadow=1;" vertex="1" parent="1">
          <mxGeometry x="1770" y="104" width="261" height="34" as="geometry" />
        </mxCell>
        <mxCell id="KMLwlwWI1u_eGaCkUCbn-100" value="socket_config()" style="rounded=1;absoluteArcSize=1;arcSize=14;whiteSpace=wrap;strokeWidth=2;glass=0;" vertex="1" parent="1">
          <mxGeometry x="60" y="188" width="113" height="34" as="geometry" />
        </mxCell>
        <mxCell id="KMLwlwWI1u_eGaCkUCbn-101" value="WIZMSGHandler - Search" style="rounded=1;absoluteArcSize=1;arcSize=14;whiteSpace=wrap;strokeWidth=2;" vertex="1" parent="1">
          <mxGeometry x="20" y="272" width="192" height="34" as="geometry" />
        </mxCell>
        <mxCell id="KMLwlwWI1u_eGaCkUCbn-102" value="get_search_result()" style="rounded=1;absoluteArcSize=1;arcSize=14;whiteSpace=wrap;strokeWidth=2;" vertex="1" parent="1">
          <mxGeometry x="45" y="356" width="143" height="34" as="geometry" />
        </mxCell>
        <mxCell id="KMLwlwWI1u_eGaCkUCbn-103" value="search_each_dev()" style="rounded=1;absoluteArcSize=1;arcSize=14;whiteSpace=wrap;strokeWidth=2;" vertex="1" parent="1">
          <mxGeometry x="47" y="440" width="139" height="34" as="geometry" />
        </mxCell>
        <mxCell id="KMLwlwWI1u_eGaCkUCbn-104" value="getsearch_each_dev()" style="rounded=1;absoluteArcSize=1;arcSize=14;whiteSpace=wrap;strokeWidth=2;" vertex="1" parent="1">
          <mxGeometry x="35" y="524" width="162" height="34" as="geometry" />
        </mxCell>
        <mxCell id="KMLwlwWI1u_eGaCkUCbn-105" value="fill_devinfo()" style="rounded=1;absoluteArcSize=1;arcSize=14;whiteSpace=wrap;strokeWidth=2;" vertex="1" parent="1">
          <mxGeometry x="68" y="608" width="97" height="34" as="geometry" />
        </mxCell>
        <mxCell id="KMLwlwWI1u_eGaCkUCbn-106" value="get_object_value()" style="rounded=1;absoluteArcSize=1;arcSize=14;whiteSpace=wrap;strokeWidth=2;" vertex="1" parent="1">
          <mxGeometry x="301" y="188" width="140" height="34" as="geometry" />
        </mxCell>
        <mxCell id="KMLwlwWI1u_eGaCkUCbn-107" value="WIZMakeCMD - setcommand" style="rounded=1;absoluteArcSize=1;arcSize=14;whiteSpace=wrap;strokeWidth=2;" vertex="1" parent="1">
          <mxGeometry x="262" y="272" width="216" height="34" as="geometry" />
        </mxCell>
        <mxCell id="KMLwlwWI1u_eGaCkUCbn-108" value="WIZMSGHandler - Setting" style="rounded=1;absoluteArcSize=1;arcSize=14;whiteSpace=wrap;strokeWidth=2;" vertex="1" parent="1">
          <mxGeometry x="273" y="356" width="195" height="34" as="geometry" />
        </mxCell>
        <mxCell id="KMLwlwWI1u_eGaCkUCbn-109" value="get_setting_result()" style="rounded=1;absoluteArcSize=1;arcSize=14;whiteSpace=wrap;strokeWidth=2;" vertex="1" parent="1">
          <mxGeometry x="298" y="440" width="146" height="34" as="geometry" />
        </mxCell>
        <mxCell id="KMLwlwWI1u_eGaCkUCbn-110" value="firmware_update()" style="rounded=1;absoluteArcSize=1;arcSize=14;whiteSpace=wrap;strokeWidth=2;" vertex="1" parent="1">
          <mxGeometry x="643" y="188" width="139" height="34" as="geometry" />
        </mxCell>
        <mxCell id="KMLwlwWI1u_eGaCkUCbn-111" value="connect_over_tcp()" style="rounded=1;absoluteArcSize=1;arcSize=14;whiteSpace=wrap;strokeWidth=2;" vertex="1" parent="1">
          <mxGeometry x="545" y="272" width="143" height="34" as="geometry" />
        </mxCell>
        <mxCell id="KMLwlwWI1u_eGaCkUCbn-112" value="FWUploadThread" style="rounded=1;absoluteArcSize=1;arcSize=14;whiteSpace=wrap;strokeWidth=2;" vertex="1" parent="1">
          <mxGeometry x="739" y="272" width="137" height="34" as="geometry" />
        </mxCell>
        <mxCell id="KMLwlwWI1u_eGaCkUCbn-113" value="update_result()" style="rounded=1;absoluteArcSize=1;arcSize=14;whiteSpace=wrap;strokeWidth=2;" vertex="1" parent="1">
          <mxGeometry x="750" y="356" width="115" height="34" as="geometry" />
        </mxCell>
        <mxCell id="KMLwlwWI1u_eGaCkUCbn-114" value="do_reset()" style="rounded=1;absoluteArcSize=1;arcSize=14;whiteSpace=wrap;strokeWidth=2;" vertex="1" parent="1">
          <mxGeometry x="996" y="188" width="78" height="34" as="geometry" />
        </mxCell>
        <mxCell id="KMLwlwWI1u_eGaCkUCbn-115" value="WIZMakeCMD - reset" style="rounded=1;absoluteArcSize=1;arcSize=14;whiteSpace=wrap;strokeWidth=2;" vertex="1" parent="1">
          <mxGeometry x="954" y="272" width="163" height="34" as="geometry" />
        </mxCell>
        <mxCell id="KMLwlwWI1u_eGaCkUCbn-116" value="WIZMSGHandler - Reset" style="rounded=1;absoluteArcSize=1;arcSize=14;whiteSpace=wrap;strokeWidth=2;" vertex="1" parent="1">
          <mxGeometry x="943" y="356" width="184" height="34" as="geometry" />
        </mxCell>
        <mxCell id="KMLwlwWI1u_eGaCkUCbn-117" value="reset_result()" style="rounded=1;absoluteArcSize=1;arcSize=14;whiteSpace=wrap;strokeWidth=2;" vertex="1" parent="1">
          <mxGeometry x="985" y="440" width="102" height="34" as="geometry" />
        </mxCell>
        <mxCell id="KMLwlwWI1u_eGaCkUCbn-118" value="do_factory_reset()" style="rounded=1;absoluteArcSize=1;arcSize=14;whiteSpace=wrap;strokeWidth=2;" vertex="1" parent="1">
          <mxGeometry x="1230" y="188" width="138" height="34" as="geometry" />
        </mxCell>
        <mxCell id="KMLwlwWI1u_eGaCkUCbn-119" value="WIZMakeCMD - factory_reset" style="rounded=1;absoluteArcSize=1;arcSize=14;whiteSpace=wrap;strokeWidth=2;" vertex="1" parent="1">
          <mxGeometry x="1188" y="272" width="223" height="34" as="geometry" />
        </mxCell>
        <mxCell id="KMLwlwWI1u_eGaCkUCbn-120" value="WIZMSGHandler - Factory Reset" style="rounded=1;absoluteArcSize=1;arcSize=14;whiteSpace=wrap;strokeWidth=2;" vertex="1" parent="1">
          <mxGeometry x="1178" y="356" width="243" height="34" as="geometry" />
        </mxCell>
        <mxCell id="KMLwlwWI1u_eGaCkUCbn-121" value="factory_result()" style="rounded=1;absoluteArcSize=1;arcSize=14;whiteSpace=wrap;strokeWidth=2;" vertex="1" parent="1">
          <mxGeometry x="1241" y="440" width="117" height="34" as="geometry" />
        </mxCell>
        <mxCell id="KMLwlwWI1u_eGaCkUCbn-122" value="dialog_save_file()" style="rounded=1;absoluteArcSize=1;arcSize=14;whiteSpace=wrap;strokeWidth=2;" vertex="1" parent="1">
          <mxGeometry x="1525" y="188" width="131" height="34" as="geometry" />
        </mxCell>
        <mxCell id="KMLwlwWI1u_eGaCkUCbn-123" value="save_configuration()" style="rounded=1;absoluteArcSize=1;arcSize=14;whiteSpace=wrap;strokeWidth=2;" vertex="1" parent="1">
          <mxGeometry x="1515" y="272" width="150" height="34" as="geometry" />
        </mxCell>
        <mxCell id="KMLwlwWI1u_eGaCkUCbn-124" value="get_object_value()" style="rounded=1;absoluteArcSize=1;arcSize=14;whiteSpace=wrap;strokeWidth=2;" vertex="1" parent="1">
          <mxGeometry x="1520" y="356" width="140" height="34" as="geometry" />
        </mxCell>
        <mxCell id="KMLwlwWI1u_eGaCkUCbn-125" value="dialog_load_file()" style="rounded=1;absoluteArcSize=1;arcSize=14;whiteSpace=wrap;strokeWidth=2;" vertex="1" parent="1">
          <mxGeometry x="1835" y="188" width="130" height="34" as="geometry" />
        </mxCell>
        <mxCell id="KMLwlwWI1u_eGaCkUCbn-126" value="load_configuration()" style="rounded=1;absoluteArcSize=1;arcSize=14;whiteSpace=wrap;strokeWidth=2;" vertex="1" parent="1">
          <mxGeometry x="1825" y="272" width="150" height="34" as="geometry" />
        </mxCell>
        <mxCell id="KMLwlwWI1u_eGaCkUCbn-127" value="fill_devinfo()" style="rounded=1;absoluteArcSize=1;arcSize=14;whiteSpace=wrap;strokeWidth=2;" vertex="1" parent="1">
          <mxGeometry x="1852" y="356" width="97" height="34" as="geometry" />
        </mxCell>
        <mxCell id="KMLwlwWI1u_eGaCkUCbn-128" value="" style="curved=1;startArrow=none;endArrow=block;exitX=-0.0017411579457364342;exitY=0.5869963508443399;entryX=0.4983742774566474;entryY=0;rounded=0;" edge="1" parent="1" source="KMLwlwWI1u_eGaCkUCbn-92" target="KMLwlwWI1u_eGaCkUCbn-93">
          <mxGeometry relative="1" as="geometry">
            <Array as="points">
              <mxPoint x="116" y="79" />
            </Array>
          </mxGeometry>
        </mxCell>
        <mxCell id="KMLwlwWI1u_eGaCkUCbn-129" value="" style="curved=1;startArrow=none;endArrow=block;exitX=-0.0017411579457364342;exitY=0.6202913294294254;entryX=0.5009598214285714;entryY=0;rounded=0;" edge="1" parent="1" source="KMLwlwWI1u_eGaCkUCbn-92" target="KMLwlwWI1u_eGaCkUCbn-94">
          <mxGeometry relative="1" as="geometry">
            <Array as="points">
              <mxPoint x="371" y="79" />
            </Array>
          </mxGeometry>
        </mxCell>
        <mxCell id="KMLwlwWI1u_eGaCkUCbn-130" value="" style="curved=1;startArrow=none;endArrow=block;exitX=-0.0017411579457364342;exitY=0.7472005156314088;entryX=0.501976656626506;entryY=0;rounded=0;" edge="1" parent="1" source="KMLwlwWI1u_eGaCkUCbn-92" target="KMLwlwWI1u_eGaCkUCbn-95">
          <mxGeometry relative="1" as="geometry">
            <Array as="points">
              <mxPoint x="712" y="79" />
            </Array>
          </mxGeometry>
        </mxCell>
        <mxCell id="KMLwlwWI1u_eGaCkUCbn-131" value="" style="curved=1;startArrow=none;endArrow=block;exitX=0.5001362645348837;exitY=1;entryX=0.4970584032012195;entryY=0;rounded=0;" edge="1" parent="1" source="KMLwlwWI1u_eGaCkUCbn-92" target="KMLwlwWI1u_eGaCkUCbn-96">
          <mxGeometry relative="1" as="geometry">
            <Array as="points" />
          </mxGeometry>
        </mxCell>
        <mxCell id="KMLwlwWI1u_eGaCkUCbn-132" value="" style="curved=1;startArrow=none;endArrow=block;exitX=1.0020136870155039;exitY=0.8036794480173595;entryX=0.4971885510089686;entryY=0;rounded=0;" edge="1" parent="1" source="KMLwlwWI1u_eGaCkUCbn-92" target="KMLwlwWI1u_eGaCkUCbn-97">
          <mxGeometry relative="1" as="geometry">
            <Array as="points">
              <mxPoint x="1299" y="79" />
            </Array>
          </mxGeometry>
        </mxCell>
        <mxCell id="KMLwlwWI1u_eGaCkUCbn-133" value="" style="curved=1;startArrow=none;endArrow=block;exitX=1.0020136870155039;exitY=0.6442596669030556;entryX=0.49963191105769234;entryY=0;rounded=0;" edge="1" parent="1" source="KMLwlwWI1u_eGaCkUCbn-92" target="KMLwlwWI1u_eGaCkUCbn-98">
          <mxGeometry relative="1" as="geometry">
            <Array as="points">
              <mxPoint x="1590" y="79" />
            </Array>
          </mxGeometry>
        </mxCell>
        <mxCell id="KMLwlwWI1u_eGaCkUCbn-134" value="" style="curved=1;startArrow=none;endArrow=block;exitX=1.0020136870155039;exitY=0.5925029241537894;entryX=0.49843600335249044;entryY=0;rounded=0;" edge="1" parent="1" source="KMLwlwWI1u_eGaCkUCbn-92" target="KMLwlwWI1u_eGaCkUCbn-99">
          <mxGeometry relative="1" as="geometry">
            <Array as="points">
              <mxPoint x="1900" y="79" />
            </Array>
          </mxGeometry>
        </mxCell>
        <mxCell id="KMLwlwWI1u_eGaCkUCbn-135" value="" style="curved=1;startArrow=none;endArrow=block;exitX=0.4983742774566474;exitY=1;entryX=0.49751106194690264;entryY=0;rounded=0;" edge="1" parent="1" source="KMLwlwWI1u_eGaCkUCbn-93" target="KMLwlwWI1u_eGaCkUCbn-100">
          <mxGeometry relative="1" as="geometry">
            <Array as="points" />
          </mxGeometry>
        </mxCell>
        <mxCell id="KMLwlwWI1u_eGaCkUCbn-136" value="" style="curved=1;startArrow=none;endArrow=block;exitX=0.49751106194690264;exitY=1;entryX=0.5011393229166666;entryY=0;rounded=0;" edge="1" parent="1" source="KMLwlwWI1u_eGaCkUCbn-100" target="KMLwlwWI1u_eGaCkUCbn-101">
          <mxGeometry relative="1" as="geometry">
            <Array as="points" />
          </mxGeometry>
        </mxCell>
        <mxCell id="KMLwlwWI1u_eGaCkUCbn-137" value="" style="curved=1;startArrow=none;endArrow=block;exitX=0.5011393229166666;exitY=1;entryX=0.49803321678321677;entryY=0;rounded=0;" edge="1" parent="1" source="KMLwlwWI1u_eGaCkUCbn-101" target="KMLwlwWI1u_eGaCkUCbn-102">
          <mxGeometry relative="1" as="geometry">
            <Array as="points" />
          </mxGeometry>
        </mxCell>
        <mxCell id="KMLwlwWI1u_eGaCkUCbn-138" value="" style="curved=1;startArrow=none;endArrow=block;exitX=0.49803321678321677;exitY=1;entryX=0.49797661870503596;entryY=0;rounded=0;" edge="1" parent="1" source="KMLwlwWI1u_eGaCkUCbn-102" target="KMLwlwWI1u_eGaCkUCbn-103">
          <mxGeometry relative="1" as="geometry">
            <Array as="points" />
          </mxGeometry>
        </mxCell>
        <mxCell id="KMLwlwWI1u_eGaCkUCbn-139" value="" style="curved=1;startArrow=none;endArrow=block;exitX=0.49797661870503596;exitY=1;entryX=0.5013503086419753;entryY=0;rounded=0;" edge="1" parent="1" source="KMLwlwWI1u_eGaCkUCbn-103" target="KMLwlwWI1u_eGaCkUCbn-104">
          <mxGeometry relative="1" as="geometry">
            <Array as="points" />
          </mxGeometry>
        </mxCell>
        <mxCell id="KMLwlwWI1u_eGaCkUCbn-140" value="" style="curved=1;startArrow=none;endArrow=block;exitX=0.5013503086419753;exitY=1;entryX=0.49710051546391754;entryY=0;rounded=0;" edge="1" parent="1" source="KMLwlwWI1u_eGaCkUCbn-104" target="KMLwlwWI1u_eGaCkUCbn-105">
          <mxGeometry relative="1" as="geometry">
            <Array as="points" />
          </mxGeometry>
        </mxCell>
        <mxCell id="KMLwlwWI1u_eGaCkUCbn-141" value="" style="curved=1;startArrow=none;endArrow=block;exitX=0.5009598214285714;exitY=1;entryX=0.4976283482142857;entryY=0;rounded=0;" edge="1" parent="1" source="KMLwlwWI1u_eGaCkUCbn-94" target="KMLwlwWI1u_eGaCkUCbn-106">
          <mxGeometry relative="1" as="geometry">
            <Array as="points" />
          </mxGeometry>
        </mxCell>
        <mxCell id="KMLwlwWI1u_eGaCkUCbn-142" value="" style="curved=1;startArrow=none;endArrow=block;exitX=0.4976283482142857;exitY=1;entryX=0.5030924479166666;entryY=0;rounded=0;" edge="1" parent="1" source="KMLwlwWI1u_eGaCkUCbn-106" target="KMLwlwWI1u_eGaCkUCbn-107">
          <mxGeometry relative="1" as="geometry">
            <Array as="points" />
          </mxGeometry>
        </mxCell>
        <mxCell id="KMLwlwWI1u_eGaCkUCbn-143" value="" style="curved=1;startArrow=none;endArrow=block;exitX=0.5030924479166666;exitY=1;entryX=0.5008613782051282;entryY=0;rounded=0;" edge="1" parent="1" source="KMLwlwWI1u_eGaCkUCbn-107" target="KMLwlwWI1u_eGaCkUCbn-108">
          <mxGeometry relative="1" as="geometry">
            <Array as="points" />
          </mxGeometry>
        </mxCell>
        <mxCell id="KMLwlwWI1u_eGaCkUCbn-144" value="" style="curved=1;startArrow=none;endArrow=block;exitX=0.5008613782051282;exitY=1;entryX=0.4977258133561644;entryY=0;rounded=0;" edge="1" parent="1" source="KMLwlwWI1u_eGaCkUCbn-108" target="KMLwlwWI1u_eGaCkUCbn-109">
          <mxGeometry relative="1" as="geometry">
            <Array as="points" />
          </mxGeometry>
        </mxCell>
        <mxCell id="KMLwlwWI1u_eGaCkUCbn-145" value="" style="curved=1;startArrow=none;endArrow=block;exitX=0.501976656626506;exitY=1;entryX=0.4963466726618705;entryY=0;rounded=0;" edge="1" parent="1" source="KMLwlwWI1u_eGaCkUCbn-95" target="KMLwlwWI1u_eGaCkUCbn-110">
          <mxGeometry relative="1" as="geometry">
            <Array as="points" />
          </mxGeometry>
        </mxCell>
        <mxCell id="KMLwlwWI1u_eGaCkUCbn-146" value="" style="curved=1;startArrow=none;endArrow=block;exitX=0.21918190893713616;exitY=1;entryX=0.5021716564685315;entryY=0;rounded=0;" edge="1" parent="1" source="KMLwlwWI1u_eGaCkUCbn-110" target="KMLwlwWI1u_eGaCkUCbn-111">
          <mxGeometry relative="1" as="geometry">
            <Array as="points">
              <mxPoint x="617" y="247" />
            </Array>
          </mxGeometry>
        </mxCell>
        <mxCell id="KMLwlwWI1u_eGaCkUCbn-147" value="" style="curved=1;startArrow=none;endArrow=block;exitX=0.7735114363866048;exitY=1;entryX=0.49761918339416056;entryY=0;rounded=0;" edge="1" parent="1" source="KMLwlwWI1u_eGaCkUCbn-110" target="KMLwlwWI1u_eGaCkUCbn-112">
          <mxGeometry relative="1" as="geometry">
            <Array as="points">
              <mxPoint x="807" y="247" />
            </Array>
          </mxGeometry>
        </mxCell>
        <mxCell id="KMLwlwWI1u_eGaCkUCbn-148" value="" style="curved=1;startArrow=none;endArrow=block;exitX=0.49761918339416056;exitY=1;entryX=0.49716372282608695;entryY=0;rounded=0;" edge="1" parent="1" source="KMLwlwWI1u_eGaCkUCbn-112" target="KMLwlwWI1u_eGaCkUCbn-113">
          <mxGeometry relative="1" as="geometry">
            <Array as="points" />
          </mxGeometry>
        </mxCell>
        <mxCell id="KMLwlwWI1u_eGaCkUCbn-149" value="" style="curved=1;startArrow=none;endArrow=block;exitX=0.4970584032012195;exitY=1;entryX=0.5066356169871795;entryY=0;rounded=0;" edge="1" parent="1" source="KMLwlwWI1u_eGaCkUCbn-96" target="KMLwlwWI1u_eGaCkUCbn-114">
          <mxGeometry relative="1" as="geometry">
            <Array as="points" />
          </mxGeometry>
        </mxCell>
        <mxCell id="KMLwlwWI1u_eGaCkUCbn-150" value="" style="curved=1;startArrow=none;endArrow=block;exitX=0.5066356169871795;exitY=1;entryX=0.5001078412576687;entryY=0;rounded=0;" edge="1" parent="1" source="KMLwlwWI1u_eGaCkUCbn-114" target="KMLwlwWI1u_eGaCkUCbn-115">
          <mxGeometry relative="1" as="geometry">
            <Array as="points" />
          </mxGeometry>
        </mxCell>
        <mxCell id="KMLwlwWI1u_eGaCkUCbn-151" value="" style="curved=1;startArrow=none;endArrow=block;exitX=0.5001078412576687;exitY=1;entryX=0.5028129245923914;entryY=0;rounded=0;" edge="1" parent="1" source="KMLwlwWI1u_eGaCkUCbn-115" target="KMLwlwWI1u_eGaCkUCbn-116">
          <mxGeometry relative="1" as="geometry">
            <Array as="points" />
          </mxGeometry>
        </mxCell>
        <mxCell id="KMLwlwWI1u_eGaCkUCbn-152" value="" style="curved=1;startArrow=none;endArrow=block;exitX=0.5028129245923914;exitY=1;entryX=0.49527037377450983;entryY=0;rounded=0;" edge="1" parent="1" source="KMLwlwWI1u_eGaCkUCbn-116" target="KMLwlwWI1u_eGaCkUCbn-117">
          <mxGeometry relative="1" as="geometry">
            <Array as="points" />
          </mxGeometry>
        </mxCell>
        <mxCell id="KMLwlwWI1u_eGaCkUCbn-153" value="" style="curved=1;startArrow=none;endArrow=block;exitX=0.4971885510089686;exitY=1;entryX=0.4990800498188406;entryY=0;rounded=0;" edge="1" parent="1" source="KMLwlwWI1u_eGaCkUCbn-97" target="KMLwlwWI1u_eGaCkUCbn-118">
          <mxGeometry relative="1" as="geometry">
            <Array as="points" />
          </mxGeometry>
        </mxCell>
        <mxCell id="KMLwlwWI1u_eGaCkUCbn-154" value="" style="curved=1;startArrow=none;endArrow=block;exitX=0.4990800498188406;exitY=1;entryX=0.4971885510089686;entryY=0;rounded=0;" edge="1" parent="1" source="KMLwlwWI1u_eGaCkUCbn-118" target="KMLwlwWI1u_eGaCkUCbn-119">
          <mxGeometry relative="1" as="geometry">
            <Array as="points" />
          </mxGeometry>
        </mxCell>
        <mxCell id="KMLwlwWI1u_eGaCkUCbn-155" value="" style="curved=1;startArrow=none;endArrow=block;exitX=0.4971885510089686;exitY=1;entryX=0.4974199459876543;entryY=0;rounded=0;" edge="1" parent="1" source="KMLwlwWI1u_eGaCkUCbn-119" target="KMLwlwWI1u_eGaCkUCbn-120">
          <mxGeometry relative="1" as="geometry">
            <Array as="points" />
          </mxGeometry>
        </mxCell>
        <mxCell id="KMLwlwWI1u_eGaCkUCbn-156" value="" style="curved=1;startArrow=none;endArrow=block;exitX=0.4974199459876543;exitY=1;entryX=0.49464142628205127;entryY=0;rounded=0;" edge="1" parent="1" source="KMLwlwWI1u_eGaCkUCbn-120" target="KMLwlwWI1u_eGaCkUCbn-121">
          <mxGeometry relative="1" as="geometry">
            <Array as="points" />
          </mxGeometry>
        </mxCell>
        <mxCell id="KMLwlwWI1u_eGaCkUCbn-157" value="" style="curved=1;startArrow=none;endArrow=block;exitX=0.49963191105769234;exitY=1;entryX=0.4954526479007634;entryY=0;rounded=0;" edge="1" parent="1" source="KMLwlwWI1u_eGaCkUCbn-98" target="KMLwlwWI1u_eGaCkUCbn-122">
          <mxGeometry relative="1" as="geometry">
            <Array as="points" />
          </mxGeometry>
        </mxCell>
        <mxCell id="KMLwlwWI1u_eGaCkUCbn-158" value="" style="curved=1;startArrow=none;endArrow=block;exitX=0.4954526479007634;exitY=1;entryX=0.4993619791666667;entryY=0;rounded=0;" edge="1" parent="1" source="KMLwlwWI1u_eGaCkUCbn-122" target="KMLwlwWI1u_eGaCkUCbn-123">
          <mxGeometry relative="1" as="geometry">
            <Array as="points" />
          </mxGeometry>
        </mxCell>
        <mxCell id="KMLwlwWI1u_eGaCkUCbn-159" value="" style="curved=1;startArrow=none;endArrow=block;exitX=0.4993619791666667;exitY=1;entryX=0.49931640625;entryY=0;rounded=0;" edge="1" parent="1" source="KMLwlwWI1u_eGaCkUCbn-123" target="KMLwlwWI1u_eGaCkUCbn-124">
          <mxGeometry relative="1" as="geometry">
            <Array as="points" />
          </mxGeometry>
        </mxCell>
        <mxCell id="KMLwlwWI1u_eGaCkUCbn-160" value="" style="curved=1;startArrow=none;endArrow=block;exitX=0.49843600335249044;exitY=1;entryX=0.5007061298076924;entryY=0;rounded=0;" edge="1" parent="1" source="KMLwlwWI1u_eGaCkUCbn-99" target="KMLwlwWI1u_eGaCkUCbn-125">
          <mxGeometry relative="1" as="geometry">
            <Array as="points" />
          </mxGeometry>
        </mxCell>
        <mxCell id="KMLwlwWI1u_eGaCkUCbn-161" value="" style="curved=1;startArrow=none;endArrow=block;exitX=0.5007061298076924;exitY=1;entryX=0.5006119791666667;entryY=0;rounded=0;" edge="1" parent="1" source="KMLwlwWI1u_eGaCkUCbn-125" target="KMLwlwWI1u_eGaCkUCbn-126">
          <mxGeometry relative="1" as="geometry">
            <Array as="points" />
          </mxGeometry>
        </mxCell>
        <mxCell id="KMLwlwWI1u_eGaCkUCbn-162" value="" style="curved=1;startArrow=none;endArrow=block;exitX=0.5006119791666667;exitY=1;entryX=0.49579172036082475;entryY=0;rounded=0;" edge="1" parent="1" source="KMLwlwWI1u_eGaCkUCbn-126" target="KMLwlwWI1u_eGaCkUCbn-127">
          <mxGeometry relative="1" as="geometry">
            <Array as="points" />
          </mxGeometry>
        </mxCell>
      </root>
    </mxGraphModel>
  </diagram>
</mxfile>
